<svg width="172" height="32" viewBox="0 0 172 32" fill="none" xmlns="http://www.w3.org/2000/svg">
    <path d="M3.5166 1.41168C-8.34597 -1.7562 13.5984 1.39494 13.7148 1.41168L23.4189 19.5816L33.123 1.41168H41.9619L51.7275 19.5816L61.4316 1.41168H71.5684L55.374 31.9058H48.0186L37.5117 12.2964L27.0654 31.9058H19.7109C19.694 31.7987 15.3877 4.58246 3.5166 1.41168ZM83.9902 1.41266H118.826C120.515 1.41271 122.041 1.69468 123.4 2.25934C124.801 2.82401 125.914 3.58662 126.738 4.54645C127.603 5.50622 128.036 6.55115 128.036 7.68024V15.5582C128.036 16.6873 127.603 17.7322 126.738 18.692C125.914 19.6518 124.801 20.4144 123.4 20.9791C122.041 21.5437 120.515 21.8257 118.826 21.8257L127.974 29.6187V31.8638H118.085L105.406 21.8472L93.1143 21.8687V31.8638H85V8.86383H89.1416L84.2256 1.86383L79 8.86383H83V31.8638H72.9902V1.43805L83.9902 1.4068V1.41266ZM171.104 7.97711H139.705V13.313H164.984V19.9205H139.705V25.2564H171.104V31.8638H130.001V1.36969H171.104V7.97711ZM93.1143 15.2193H118.332V7.97711H93.1143V15.2193Z" fill="#1b1b18"/>
</svg>